HIERARCHY
ROOT Hips
{
  OFFSET 2.26061 22.2878 23.7974
  CHANNELS 6 Xposition Yposition Zposition Zrotation Xrotation Yrotation
  JOINT LeftUpLeg
  {
    OFFSET 8.64259 1.95398 -2.38835
    CHANNELS 3 Zrotation Xrotation Yrotation
    JOINT LeftLeg
    {
      OFFSET 43.7702 0 0
      CHANNELS 3 Zrotation Xrotation Yrotation
      JOINT LeftFoot
      {
        OFFSET 40.6238 0 0
        CHANNELS 3 Zrotation Xrotation Yrotation
        JOINT LeftToeBase
        {
          OFFSET 12.7242 0 0
          CHANNELS 3 Zrotation Xrotation Yrotation
          End Site
          {
            OFFSET 0 0 0
          }
        }
      }
    }
  }
  JOINT RightUpLeg
  {
    OFFSET -8.2249 1.95398 -2.59336
    CHANNELS 3 Zrotation Xrotation Yrotation
    JOINT RightLeg
    {
      OFFSET 43.5653 0 0
      CHANNELS 3 Zrotation Xrotation Yrotation
      JOINT RightFoot
      {
        OFFSET 40.6238 0 0
        CHANNELS 3 Zrotation Xrotation Yrotation
        JOINT RightToeBase
        {
          OFFSET 12.7242 0 0
          CHANNELS 3 Zrotation Xrotation Yrotation
          End Site
          {
            OFFSET 0 0 0
          }
        }
      }
    }
  }
  JOINT Spine
  {
    OFFSET 0.165834 0.87714 6.61349
    CHANNELS 3 Zrotation Xrotation Yrotation
    JOINT Spine1
    {
      OFFSET 7.38963 1.71661e-005 0
      CHANNELS 3 Zrotation Xrotation Yrotation
      JOINT Spine2
      {
        OFFSET 11.9445 1.14441e-005 0
        CHANNELS 3 Zrotation Xrotation Yrotation
        JOINT Spine3
        {
          OFFSET 14.7254 4.19617e-005 0
          CHANNELS 3 Zrotation Xrotation Yrotation
          JOINT Spine4
          {
            OFFSET 10.9679 0 0
            CHANNELS 3 Zrotation Xrotation Yrotation
            JOINT RightShoulder
            {
              OFFSET 2.46616 -1.6653 3.69651
              CHANNELS 3 Zrotation Xrotation Yrotation
              JOINT RightArm
              {
                OFFSET 13.0012 0 0
                CHANNELS 3 Zrotation Xrotation Yrotation
                JOINT RightForeArm
                {
                  OFFSET 28.7848 1.52588e-005 0
                  CHANNELS 3 Zrotation Xrotation Yrotation
                  JOINT RightHand
                  {
                    OFFSET 26.5688 1.52588e-005 0
                    CHANNELS 3 Zrotation Xrotation Yrotation
                    End Site
                    {
                      OFFSET 0 0 0
                    }
                  }
                }
              }
            }
            JOINT LeftShoulder
            {
              OFFSET 2.38034 -1.29275 -3.7523
              CHANNELS 3 Zrotation Xrotation Yrotation
              JOINT LeftArm
              {
                OFFSET 16.3182 6.10351e-005 0
                CHANNELS 3 Zrotation Xrotation Yrotation
                JOINT LeftForeArm
                {
                  OFFSET 27.0901 0 0
                  CHANNELS 3 Zrotation Xrotation Yrotation
                  JOINT LeftHand
                  {
                    OFFSET 24.5451 1.52588e-005 0
                    CHANNELS 3 Zrotation Xrotation Yrotation
                    End Site
                    {
                      OFFSET 0 0 0
                    }
                  }
                }
              }
            }
            JOINT Neck
            {
              OFFSET 5.0226 -0.0266342 0
              CHANNELS 3 Zrotation Xrotation Yrotation
              JOINT Head
              {
                OFFSET 6.69363 2.86102e-005 0
                CHANNELS 3 Zrotation Xrotation Yrotation
                End Site
                {
                  OFFSET 0 0 0
                }
              }
            }
          }
        }
      }
    }
  }
}
MOTION
Frames:	6
Frame Time:	0.0416667
-55.6522 97.3921 47.166 -165.511 -89.1488 -165.245 -172.087 2.44848 91.4574 -9.62488 7.115 0.267522 62.4865 2.42699 2.60546 29.4041 0.446942 0.497255 173.666 0.387877 89.8255 -9.08301 -4.13638 -1.93167 64.4535 -2.49263 -1.38874 29.5747 0.108235 -1.19056 0.105573 5.61724 -89.8685 15.6391 0.27471 0.221676 3.96817 0.284194 0.209353 -18.567 0.195382 0.293987 1.44568 0.195385 0.29398 101.643 32.2419 -65.3344 37.9953 30.1139 -79.1394 10.3051 38.9802 -43.5224 -16.2204 0.654917 -11.2659 -74.7539 9.53087 111.55 -18.78 -48.2945 -97.0922 -5.16631 -37.867 -22.5355 19.1881 -1.30009 -10.7163 23.8419 -1.93814 1.45142 1.32085 -2.35898 -0.637702 
-55.6657 97.4027 47.1494 -162.489 -89.0797 -162.152 -171.939 2.37267 91.5899 -9.57179 6.98928 0.175225 62.736 2.60232 2.5251 28.9231 0.0865592 0.261544 173.669 0.36764 89.8797 -9.16124 -4.25916 -1.90352 64.238 -2.40857 -1.3393 30.123 0.163127 -1.81623 0.125205 5.61213 -89.8563 15.6493 0.319627 0.23924 3.97833 0.329849 0.224945 -18.5568 0.232947 0.324249 1.45581 0.232943 0.324239 101.742 31.7597 -65.8197 37.2981 30.4978 -78.7816 10.2575 38.6097 -43.3902 -16.4224 0.652738 -11.1902 -74.8598 10.014 111.31 -19.17 -48.0356 -96.9509 -4.98841 -37.515 -22.537 18.9447 -1.30554 -10.8188 24.1266 -1.97123 1.29001 0.875829 -2.3537 -0.94077 
-55.7002 97.4045 47.137 -169.534 -89.2016 -169.109 -172.036 2.60872 91.6299 -9.80828 7.02388 0.317654 62.7999 2.58667 2.36698 28.9697 0.116082 0.336439 173.74 0.396031 89.9954 -9.06481 -4.12582 -1.87764 64.2284 -2.41726 -1.34634 29.8391 0.146068 -1.69587 0.13126 5.60215 -89.8582 15.6693 0.330693 0.233626 3.99833 0.340652 0.218827 -18.5369 0.245185 0.322207 1.47578 0.245186 0.322202 101.619 32.3737 -65.3038 37.4924 30.0099 -78.8042 10.5729 39.4138 -43.4988 -16.262 0.638005 -11.0986 -74.8413 9.65815 111.191 -18.413 -48.3668 -96.8903 -4.90319 -37.9172 -21.9912 19.0073 -1.34837 -11.026 24.9183 -1.94499 1.65613 0.0119473 -2.46183 -1.30652 
-55.7263 97.4059 47.145 -172.365 -89.1374 -171.831 -172.017 2.55882 91.7479 -9.82647 7.1106 0.382117 62.7924 2.60215 2.5309 29.0136 0.200602 -0.170683 173.795 0.254569 90.1212 -8.92139 -3.94622 -1.85408 64.2363 -2.43281 -1.35668 29.6949 0.121151 -1.33382 0.131887 5.60774 -89.8495 15.658 0.336306 0.250342 3.98709 0.346995 0.235295 -18.5481 0.245519 0.339843 1.46457 0.245519 0.339843 101.656 32.0935 -65.0277 37.6971 29.8887 -79.433 10.2695 39.3446 -43.1548 -15.9645 0.637213 -11.1853 -74.8217 9.7054 111.316 -18.35 -48.4638 -96.9871 -4.64796 -37.7021 -21.7062 19.0233 -1.26167 -10.5636 24.9763 -1.96361 1.7021 0.0378851 -2.4959 -1.30189 
-55.7063 97.4162 47.175 -164.129 -89.1254 -163.513 -171.967 2.77021 91.8261 -10.2288 7.18243 0.356324 62.7521 2.39251 2.48373 29.1728 0.265281 0.468147 173.716 0.0515231 90.1179 -8.51282 -4.19688 -1.74122 64.0049 -2.41219 -1.35345 29.7956 0.137998 -1.56901 0.148967 5.61 -89.8453 15.6534 0.372121 0.253165 3.98253 0.382905 0.236531 -18.5527 0.278833 0.353296 1.45997 0.278832 0.3533 101.583 32.4682 -64.8413 37.7799 29.7306 -79.3963 10.0496 39.9079 -42.8748 -16.181 0.63599 -11.1066 -74.8932 9.79734 111.013 -17.9658 -48.7916 -96.5313 -4.35018 -37.7273 -21.3302 18.465 -1.2425 -10.629 24.113 -1.90642 1.83137 0.952096 -2.48442 -1.38483 
-55.7374 97.4168 47.2182 -166.819 -89.0425 -166.197 -171.903 2.50838 91.8688 -9.93357 7.11633 0.322434 62.7882 2.58322 2.66387 29.144 0.321357 -0.357509 173.678 0.0630207 90.1063 -8.76255 -4.24966 -1.71045 64.1142 -2.41315 -1.35043 29.9539 0.155613 -1.78867 0.149945 5.62228 -89.823 15.6287 0.385262 0.296167 3.95776 0.397922 0.278913 -18.5774 0.278432 0.398257 1.43525 0.278437 0.398252 101.578 32.465 -64.7093 37.7582 29.7868 -79.3059 10.0264 39.7994 -42.9741 -16.2823 0.618273 -10.88 -74.8626 10.0678 111.325 -18.1341 -48.687 -96.8833 -4.43769 -38.5561 -21.0438 18.6205 -1.30429 -10.9198 24.1975 -2.05491 1.72749 0.575962 -2.58715 -1.28738 
